<?xml version="1.0" encoding="UTF-8"?>
<svg id="Layer_1" xmlns="http://www.w3.org/2000/svg" version="1.1" viewBox="0 0 206.9 27.3">
  <!-- Generator: Adobe Illustrator 29.1.0, SVG Export Plug-In . SVG Version: 2.1.0 Build 142)  -->
  <defs>
    <style>
      .st0 {
        fill: #283841;
      }

      .st1 {
        fill: none;
        stroke: #222;
        stroke-miterlimit: 10;
        stroke-width: 2px;
      }

      .st2 {
        fill: #222;
      }
    </style>
  </defs>
  <path class="st0" d="M197.6-45.2c1,6.2-4.2,11.4-10.4,10.4s-6.7-3.6-7.4-7.4c-1-6.2,4.2-11.4,10.4-10.4s6.7,3.6,7.4,7.4Z"/>
  <g>
    <path class="st1" d="M56.1,23.2h-12.7V5h3.6v14.6h9.1v3.6Z"/>
    <path class="st1" d="M72.4,23.2h-12.5V5h12.5v3.6h-8.8v3.6h6v3.6h-6v3.6h8.8v3.6Z"/>
    <path class="st1" d="M84.5,23.2h-3.6v-14.6h-5.5v-3.6h14.6v3.6h-5.5v14.6Z"/>
    <path class="st1" d="M101.4,23.2h-3.6v-14.6h-5.5v-3.6h14.6v3.6h-5.5v14.6Z"/>
    <path class="st1" d="M123.2,23.2h-12.5V5h12.5v3.6h-8.8v3.6h6v3.6h-6v3.6h8.8v3.6Z"/>
    <path class="st1" d="M131.3,23.2h-3.6V5h7.3c.7,0,1.3,0,1.9.3s1.2.4,1.7.7c.5.3,1,.7,1.5,1.1.4.4.8.9,1.1,1.5.3.5.6,1.1.7,1.7.2.6.3,1.3.3,1.9s0,1.2-.2,1.8c-.2.6-.4,1.2-.7,1.7-.3.5-.6,1-1.1,1.5-.4.4-.9.8-1.4,1.2l2,4.8h-3.9l-1.6-3.7h-4.1v3.7ZM131.3,8.6v7.3h3.6c.5,0,1,0,1.4-.3s.8-.5,1.2-.8.6-.7.8-1.2c.2-.4.3-.9.3-1.4s0-1-.3-1.4c-.2-.4-.5-.8-.8-1.2s-.7-.6-1.2-.8-.9-.3-1.4-.3h-3.6Z"/>
    <path class="st1" d="M161.1,17.7c0,.8-.1,1.5-.4,2.1s-.7,1.2-1.2,1.7c-.5.5-1.1.9-1.7,1.2s-1.4.4-2.1.4h-9.1V5h9.1c.8,0,1.5.1,2.1.4s1.2.7,1.7,1.2c.5.5.9,1.1,1.2,1.7s.4,1.4.4,2.1,0,.7-.1,1-.2.7-.4,1-.4.6-.6.9-.5.5-.8.7c.3.2.6.4.8.7.2.3.4.6.6.9s.3.7.4,1c0,.4.1.7.1,1ZM150.1,12.2h5.5c.3,0,.5,0,.7-.1s.4-.2.6-.4c.2-.2.3-.4.4-.6s.1-.5.1-.7,0-.5-.1-.7-.2-.4-.4-.6c-.2-.2-.4-.3-.6-.4s-.5-.1-.7-.1h-5.5v3.6ZM150.1,19.5h5.5c.3,0,.5,0,.7-.1.2,0,.4-.2.6-.4.2-.2.3-.4.4-.6,0-.2.1-.5.1-.7s0-.5-.1-.7c0-.2-.2-.4-.4-.6-.2-.2-.4-.3-.6-.4-.2,0-.5-.1-.7-.1h-5.5v3.6Z"/>
    <path class="st1" d="M183.5,14.1c0,.9-.1,1.7-.3,2.5-.2.8-.5,1.5-.9,2.2s-.9,1.3-1.5,1.9-1.2,1.1-1.9,1.5c-.7.4-1.4.7-2.2,1-.8.2-1.6.3-2.5.3s-1.7-.1-2.5-.3c-.8-.2-1.5-.5-2.2-1-.7-.4-1.3-.9-1.9-1.5s-1.1-1.2-1.5-1.9c-.4-.7-.7-1.4-1-2.2-.2-.8-.3-1.6-.3-2.5s.1-1.7.3-2.5c.2-.8.5-1.6,1-2.2.4-.7.9-1.3,1.5-1.9s1.2-1.1,1.9-1.5c.7-.4,1.4-.7,2.2-.9.8-.2,1.6-.3,2.5-.3s1.7.1,2.5.3,1.6.5,2.2.9,1.3.9,1.9,1.5,1.1,1.2,1.5,1.9.7,1.4.9,2.2c.2.8.3,1.6.3,2.5ZM179.9,14.1c0-.8-.2-1.5-.5-2.3s-.7-1.3-1.2-1.8c-.5-.5-1.1-.9-1.8-1.2-.7-.3-1.5-.5-2.3-.5s-1.6.2-2.3.5-1.3.7-1.8,1.2-.9,1.1-1.2,1.8-.5,1.5-.5,2.3.2,1.5.5,2.2.7,1.3,1.2,1.8c.5.5,1.1.9,1.8,1.2s1.5.5,2.3.5,1.5-.2,2.3-.5c.7-.3,1.3-.7,1.8-1.2.5-.5.9-1.1,1.2-1.8s.5-1.4.5-2.2Z"/>
    <path class="st1" d="M201.4,23.2h-4.4l-3.5-5.9-3.5,5.9h-4.4l5.6-9.1-5.6-9.1h4.4l3.5,5.9,3.5-5.9h4.4l-5.6,9.1,5.6,9.1Z"/>
  </g>
  <path class="st2" d="M24.1,11.2V2.4c0-.8.6-1.4,1.4-1.4h4.6c.8,0,1.4.6,1.4,1.4v2.8c0,.8-.6,1.4-1.4,1.4h-4.2v4.6c0,.5-.4.9-.9.9s-.9-.4-.9-.9ZM29.7,4.7v-1.9h-3.7v1.9h3.7ZM22.2,2.9v1.9h-5c1.9,1.5,3.1,3.9,3.1,6.5v10.2c0,.7-.2,1.3-.5,1.9h13.5c1,0,1.9-.8,1.9-1.9v-10.2c0-1.9-.8-3.6-2.1-4.8.2-.4.2-.8.2-1.2v-.9c2.2,1.5,3.7,4.1,3.7,7v10.2c0,2.1-1.7,3.7-3.7,3.7H7.4c-2.1,0-3.7-1.7-3.7-3.7v-10.2C3.7,6.6,7.4,2.9,12,2.9h10.2ZM16.7,23.3c1,0,1.9-.8,1.9-1.9v-10c0-3.3-2.4-6.3-5.7-6.7s-7.3,2.6-7.3,6.5v10.2c0,1,.8,1.9,1.9,1.9h9.3ZM9.2,11.2c0-.5.4-.9.9-.9h3.7c.5,0,.9.4.9.9s-.4.9-.9.9h-3.7c-.5,0-.9-.4-.9-.9Z"/>
</svg>