<?xml version="1.0" encoding="UTF-8"?>
<svg id="Layer_1" xmlns="http://www.w3.org/2000/svg" version="1.1" viewBox="0 0 240 40">
  <!-- Generator: Adobe Illustrator 29.1.0, SVG Export Plug-In . SVG Version: 2.1.0 Build 142)  -->
  <defs>
    <style>
      .st0 {
        fill: #1d1d1f;
      }
    </style>
  </defs>
  <path class="st0" d="M22.1,8.5l2.2,6.1c.3.9,1.2,1.5,2.1,1.5h4.6c2.1,0,3,2.7,1.3,4l-4,3c-.7.5-1,1.5-.8,2.4l1.6,6.1c.6,2-1.8,3.6-3.5,2.3l-4.3-3.3c-.8-.6-1.9-.6-2.7,0l-4.3,3.3c-1.7,1.3-4-.3-3.5-2.3l1.6-6.1c.2-.9,0-1.8-.8-2.4l-4-3c-1.7-1.3-.8-4,1.3-4h4.6c.9,0,1.8-.6,2.1-1.5l2.2-6.1c.7-2,3.5-2,4.2,0Z"/>
  <path class="st0" d="M72.1,8.5l2.2,6.1c.3.9,1.2,1.5,2.1,1.5h4.6c2.1,0,3,2.7,1.3,4l-4,3c-.7.5-1,1.5-.8,2.4l1.6,6.1c.6,2-1.8,3.6-3.5,2.3l-4.3-3.3c-.8-.6-1.9-.6-2.7,0l-4.3,3.3c-1.7,1.3-4-.3-3.5-2.3l1.6-6.1c.2-.9,0-1.8-.8-2.4l-4-3c-1.7-1.3-.8-4,1.3-4h4.6c.9,0,1.8-.6,2.1-1.5l2.2-6.1c.7-2,3.5-2,4.2,0Z"/>
  <path class="st0" d="M122.1,8.5l2.2,6.1c.3.9,1.2,1.5,2.1,1.5h4.6c2.1,0,3,2.7,1.3,4l-4,3c-.7.5-1,1.5-.8,2.4l1.6,6.1c.6,2-1.8,3.6-3.5,2.3l-4.3-3.3c-.8-.6-1.9-.6-2.7,0l-4.3,3.3c-1.7,1.3-4-.3-3.5-2.3l1.6-6.1c.2-.9,0-1.8-.8-2.4l-4-3c-1.7-1.3-.8-4,1.3-4h4.6c.9,0,1.8-.6,2.1-1.5l2.2-6.1c.7-2,3.5-2,4.2,0Z"/>
  <path class="st0" d="M172.1,8.5l2.2,6.1c.3.9,1.2,1.5,2.1,1.5h4.6c2.1,0,3,2.7,1.3,4l-4,3c-.7.5-1,1.5-.8,2.4l1.6,6.1c.6,2-1.8,3.6-3.5,2.3l-4.3-3.3c-.8-.6-1.9-.6-2.7,0l-4.3,3.3c-1.7,1.3-4-.3-3.5-2.3l1.6-6.1c.2-.9,0-1.8-.8-2.4l-4-3c-1.7-1.3-.8-4,1.3-4h4.6c.9,0,1.8-.6,2.1-1.5l2.2-6.1c.7-2,3.5-2,4.2,0Z"/>
  <path class="st0" d="M222.1,8.5l2.2,6.1c.3.9,1.2,1.5,2.1,1.5h4.6c2.1,0,3,2.7,1.3,4l-4,3c-.7.5-1,1.5-.8,2.4l1.6,6.1c.6,2-1.8,3.6-3.5,2.3l-4.3-3.3c-.8-.6-1.9-.6-2.7,0l-4.3,3.3c-1.7,1.3-4-.3-3.5-2.3l1.6-6.1c.2-.9,0-1.8-.8-2.4l-4-3c-1.7-1.3-.8-4,1.3-4h4.6c.9,0,1.8-.6,2.1-1.5l2.2-6.1c.7-2,3.5-2,4.2,0Z"/>
</svg>