<?xml version="1.0" encoding="UTF-8"?>
<svg id="Layer_1" xmlns="http://www.w3.org/2000/svg" xmlns:xlink="http://www.w3.org/1999/xlink" version="1.1" viewBox="0 0 375 812">
  <!-- Generator: Adobe Illustrator 29.1.0, SVG Export Plug-In . SVG Version: 2.1.0 Build 142)  -->
  <defs>
    <style>
      .st0, .st1, .st2 {
        fill: none;
      }

      .st3 {
        fill: #444147;
        opacity: .5;
      }

      .st3, .st4 {
        isolation: isolate;
      }

      .st1 {
        stroke: #212121;
        stroke-dasharray: 4 4;
      }

      .st5 {
        fill: #47c6a2;
      }

      .st6 {
        fill: #282729;
      }

      .st4 {
        opacity: .6;
      }

      .st4, .st7 {
        fill: #b2d0ce;
      }

      .st8 {
        fill: url(#linear-gradient);
      }

      .st9 {
        fill: #433d48;
        fill-opacity: .6;
      }

      .st10 {
        clip-path: url(#clippath-1);
      }

      .st11 {
        fill: #252626;
      }

      .st12 {
        fill: #1e1f1f;
      }

      .st13 {
        opacity: .3;
      }

      .st14 {
        fill: #2d2d2d;
      }

      .st15 {
        clip-path: url(#clippath);
      }

      .st2 {
        stroke: #b2d0ce;
      }
    </style>
    <clipPath id="clippath">
      <rect class="st0" width="375" height="812"/>
    </clipPath>
    <clipPath id="clippath-1">
      <rect class="st0" y="254" width="375" height="245"/>
    </clipPath>
    <linearGradient id="linear-gradient" x1="209" y1="560" x2="209" y2="315" gradientTransform="translate(0 814) scale(1 -1)" gradientUnits="userSpaceOnUse">
      <stop offset="0" stop-color="#b2d0ce" stop-opacity=".1"/>
      <stop offset="1" stop-color="#b2d0ce" stop-opacity="0"/>
    </linearGradient>
  </defs>
  <g class="st15">
    <rect class="st12" width="375" height="812"/>
    <circle class="st14" cx="349" cy="-52" r="154"/>
    <path class="st11" d="M0,786c0,14.4,11.6,26,26,26h323c14.4,0,26-11.6,26-26v-220c0-19.9-16.1-36-36-36H36c-19.9,0-36,16.1-36,36v220Z"/>
    <circle class="st9" cx="19" cy="832" r="186"/>
    <g id="mask0_404_1855">
      <path class="st6" d="M0,795c0,14.4,11.6,26,26,26h323c14.4,0,26-11.6,26-26v-220c0-19.9-16.1-36-36-36H36c-19.9,0-36,16.1-36,36v220Z"/>
    </g>
    <circle class="st0" cx="40" cy="804" r="16"/>
    <circle class="st0" cx="40" cy="744" r="16"/>
    <circle class="st0" cx="40" cy="684" r="16"/>
    <circle class="st0" cx="40" cy="624" r="16"/>
    <path class="st3" d="M166.5,519h43c.8,0,1.5.7,1.5,1.5h0c0,.8-.7,1.5-1.5,1.5h-43c-.8,0-1.5-.7-1.5-1.5h0c0-.8.7-1.5,1.5-1.5Z"/>
    <g class="st10">
      <path class="st8" d="M28.5,272.6c-27.5-30.4-51.7,7.7-61.5,43.9v182.5h484v-207.9c-37.1,38.4-58.8,35.5-70,0-9.5-30.2-13,31.4-50,31.4s-32.2-10.2-37.5-41.8c-7.5-44.6-27.5-25.3-30.5,0-3,25.3-12.7,31.4-52.8,31.4s-41.3.5-52.7,30.9c-11.4,30.4-42.7,32-42.7-30.9s-16.8-63.3-22.3-48.4c-5.9,16-14.3,36.9-27.5,36.9s-11.8-.6-36.5-27.9Z"/>
      <path class="st4" d="M69.5,456h1.1v-7.1h0l2.9,7.1h1l2.9-7.1h0v7.1h1.1v-9.2h-1.3l-3.2,7.7h0l-3.2-7.7h-1.3v9.2ZM82,456.1c.9,0,1.7-.5,2.1-1.2h0v1.1h1.1v-4.6c0-1.3-1-2.2-2.5-2.2s-2.5.9-2.6,2h0c0,0,1.1,0,1.1,0h0c.1-.6.7-1.1,1.5-1.1s1.4.5,1.4,1.3v.6h-1.9c-1.5.2-2.4.9-2.4,2h0c0,1.2.9,2,2.2,2ZM80.9,454.1h0c0-.6.5-1,1.4-1.1h1.8c0-.1,0,.4,0,.4,0,1-.8,1.7-1.8,1.7s-1.3-.4-1.3-1ZM87.3,458.2c1.2,0,1.8-.5,2.2-1.8l2.6-7h-1.2l-1.8,5.5h0l-1.8-5.5h-1.2l2.5,6.6v.4c-.4.7-.8.9-1.5.9s-.3,0-.4,0v.9c.1,0,.4,0,.6,0Z"/>
      <path class="st4" d="M-2.2,456h1.2l.9-2.6h3.7l.9,2.6h1.2l-3.4-9.2h-1.1l-3.4,9.2ZM1.8,448.2h0l1.5,4.2H.3l1.5-4.2ZM6.7,458.2h1.1v-3.3h0c.4.8,1.2,1.2,2.1,1.2,1.7,0,2.8-1.3,2.8-3.4h0c0-2.1-1.1-3.4-2.8-3.4s-1.7.5-2.1,1.2h0v-1.1h-1.1v8.8ZM9.7,455.1c-1.1,0-1.9-1-1.9-2.4h0c0-1.5.8-2.5,1.9-2.5s1.9.9,1.9,2.5h0c0,1.5-.7,2.4-1.9,2.4ZM14,456h1.1v-4.1c0-1,.6-1.6,1.4-1.6s.5,0,.6,0v-1.1c0,0-.3,0-.4,0-.7,0-1.3.5-1.5,1.2h0v-1.1h-1.1v6.6Z"/>
      <path class="st4" d="M146.6,456.2c1.7,0,2.7-1,2.7-2.8v-6.6h-1.1v6.5c0,1.1-.5,1.7-1.6,1.7s-1.4-.6-1.4-1.3h0c0,0-1.1,0-1.1,0h0c0,1.4,1,2.4,2.6,2.4ZM153.3,456.1c1,0,1.7-.5,2-1.1h0v.9h1.1v-6.6h-1.1v3.9c0,1.1-.7,1.9-1.7,1.9s-1.5-.6-1.5-1.7v-4.1h-1.1v4.3c0,1.5.8,2.4,2.3,2.4ZM158,456h1.1v-3.9c0-1.1.7-1.9,1.7-1.9s1.5.6,1.5,1.7v4.1h1.1v-4.3c0-1.5-.8-2.4-2.3-2.4s-1.7.5-2,1.1h0v-.9h-1.1v6.6Z"/>
      <path class="st4" d="M218.7,456.2c1.7,0,2.7-1,2.7-2.8v-6.6h-1.1v6.5c0,1.1-.5,1.7-1.6,1.7s-1.4-.6-1.4-1.3h0c0,0-1.1,0-1.1,0h0c0,1.4,1,2.4,2.6,2.4ZM225.4,456.1c1,0,1.7-.5,2-1.1h0v.9h1.1v-6.6h-1.1v3.9c0,1.1-.7,1.9-1.7,1.9s-1.5-.6-1.5-1.7v-4.1h-1.1v4.3c0,1.5.8,2.4,2.3,2.4ZM230.1,456h1.1v-9.2h-1.1v9.2Z"/>
      <path class="st4" d="M284,456h1.2l.9-2.6h3.7l.9,2.6h1.2l-3.4-9.2h-1.1l-3.4,9.2ZM287.9,448.2h0l1.5,4.2h-3l1.5-4.2ZM295,456.1c1,0,1.7-.5,2-1.1h0v.9h1.1v-6.6h-1.1v3.9c0,1.1-.7,1.9-1.7,1.9s-1.5-.6-1.5-1.7v-4.1h-1.1v4.3c0,1.5.8,2.4,2.3,2.4ZM302.5,458.3c1.8,0,2.9-1,2.9-2.5v-6.4h-1.1v1.1h0c-.4-.7-1.1-1.2-2.1-1.2-1.7,0-2.8,1.3-2.8,3.4h0c0,2.1,1.1,3.4,2.8,3.4s1.7-.5,2.1-1.2h0v.8c0,1-.7,1.7-1.8,1.7s-1.5-.3-1.7-.8h0c0,0-1.1,0-1.1,0h0c.2,1,1.2,1.8,2.9,1.8ZM302.4,455.1c-1.2,0-1.9-.9-1.9-2.4h0c0-1.5.7-2.4,1.9-2.4s1.9,1,1.9,2.4h0c0,1.5-.8,2.4-1.9,2.4Z"/>
      <path class="st4" d="M361.5,456.2c2.1,0,3.4-1,3.4-2.7h0c0-1.4-.8-2.2-2.7-2.6l-1-.2c-1.2-.3-1.7-.7-1.7-1.5h0c0-.9.8-1.5,2-1.5,1.2,0,1.9.6,2.1,1.5h0c0,0,1.1,0,1.1,0h0c-.1-1.6-1.4-2.6-3.2-2.6s-3.2,1.1-3.2,2.6h0c0,1.3.8,2.2,2.6,2.5l1,.2c1.3.3,1.8.7,1.8,1.5h0c0,1-.8,1.5-2.2,1.5s-2.2-.6-2.3-1.5h0c0,0-1.1,0-1.1,0h0c.1,1.7,1.5,2.6,3.4,2.6ZM368.8,456.1c1.4,0,2.5-.9,2.7-2h0c0,0-1.1,0-1.1,0h0c-.2.6-.8,1-1.6,1s-1.9-.8-1.9-2.2h4.8v-.4c0-2-1.1-3.3-2.9-3.3s-3,1.4-3,3.4h0c0,2.1,1.1,3.4,3,3.4ZM368.8,450.2c1,0,1.7.6,1.8,1.9h-3.6c.1-1.2.9-1.9,1.8-1.9ZM372.9,458.2h1.1v-3.3h0c.4.8,1.2,1.2,2.1,1.2,1.7,0,2.8-1.3,2.8-3.4h0c0-2.1-1.1-3.4-2.8-3.4s-1.7.5-2.1,1.2h0v-1.1h-1.1v8.8ZM375.9,455.1c-1.1,0-1.9-1-1.9-2.4h0c0-1.5.8-2.5,1.9-2.5s1.9.9,1.9,2.5h0c0,1.5-.7,2.4-1.9,2.4Z"/>
      <rect class="st5" x="158" y="258" width="76" height="34" rx="17" ry="17"/>
      <path class="st5" d="M194.7,297.9c.4.6,1.2.6,1.6,0l4.5-6.3c.5-.7,0-1.6-.8-1.6h-9.1c-.8,0-1.3.9-.8,1.6l4.5,6.3Z"/>
      <path class="st1" d="M42.5,457.6v-180.5"/>
      <path class="st1" d="M117.5,457.6v-126.6"/>
      <path class="st1" d="M189.5,457.6v-155.6"/>
      <path class="st1" d="M257.5,457.6v-168.5"/>
      <path class="st1" d="M331.5,457.6v-144.6"/>
      <path class="st2" d="M-33,316.5c9.8-36.2,34-74.3,61.5-43.9,24.7,27.3,28,27.9,36.5,27.9,13.2,0,21.6-20.9,27.5-36.9,5.5-15,22.3-9.5,22.3,48.4s31.3,61.3,42.7,30.9c11.4-30.4,12.6-30.9,52.7-30.9s49.8-6.1,52.8-31.4c3-25.3,23-44.6,30.5,0,5.3,31.6,21.8,41.8,37.5,41.8,37,0,40.5-61.6,50-31.4,11.2,35.5,32.9,38.4,70,0"/>
      <g class="st13">
        <circle class="st7" cx="195.5" cy="317.5" r="8.5"/>
      </g>
      <circle class="st7" cx="195.5" cy="312.5" r="8.5"/>
    </g>
  </g>
</svg>